<?xml version="1.0" standalone="no"?><!-- Generator: Gravit.io --><svg xmlns="http://www.w3.org/2000/svg" xmlns:xlink="http://www.w3.org/1999/xlink" style="isolation:isolate" viewBox="0 0 1200 500" width="1200" height="500"><defs><clipPath id="_clipPath_j1LyPXSCx0PIzguQC1PFN9MAtrk4uLSl"><rect width="1200" height="500"/></clipPath></defs><g clip-path="url(#_clipPath_j1LyPXSCx0PIzguQC1PFN9MAtrk4uLSl)"><g><path d=" M 196 232.406 C 186.4 226.487 175.096 223.071 163 223.071 C 128.229 223.071 100 251.3 100 286.071 L 100 286.071 C 100 320.841 128.229 349.071 163 349.071 C 175.096 349.071 186.4 345.654 196 339.735 L 196 349.071 L 226 349.071 L 226 286.071 L 226 286.071 L 226 146.071 L 196 146.071 L 196 232.406 Z  M 131.5 286.071 C 131.5 268.685 145.615 254.571 163 254.571 C 180.385 254.571 194.5 268.685 194.5 286.071 C 194.5 303.456 180.385 317.571 163 317.571 C 145.615 317.571 131.5 303.456 131.5 286.071 L 131.5 286.071 Z " fill-rule="evenodd" fill="rgb(196,223,46)"/><g><rect x="378" y="225.071" width="30" height="124" transform="matrix(1,0,0,1,0,0)" fill="rgb(196,223,46)"/><path d=" M 408 341.742 C 390.006 330.641 378 310.747 378 288.071 L 378 288.071 L 378 288.071 C 378 265.393 390.008 245.498 408 234.393" fill="rgb(196,223,46)"/><path d=" M 406 234.393 C 415.535 228.653 426.707 225.267 438.667 225.088 L 438.667 256.586 C 421.391 257.114 407.531 271.018 407.531 288.068" fill="rgb(196,223,46)"/></g><g><path d=" M 239 286.071 L 239 286.071 C 239 320.841 267.229 349.071 302 349.071 L 302 349.071 L 302 349.071 C 336.771 349.071 365 320.841 365 286.071 C 365 251.3 336.771 223.071 302 223.071 L 302 223.071 L 302 223.071 C 267.229 223.071 239 251.3 239 286.071 L 239 286.071 Z  M 270.5 286.071 C 270.5 268.685 284.615 254.571 302 254.571 C 319.385 254.571 333.5 268.685 333.5 286.071 C 333.5 303.456 319.385 317.571 302 317.571 C 284.615 317.571 270.5 303.456 270.5 286.071 Z " fill-rule="evenodd" fill="rgb(196,223,46)"/><rect x="335" y="223.071" width="30" height="126" transform="matrix(1,0,0,1,0,0)" fill="rgb(196,223,46)"/></g><g><path d=" M 828 290.403 L 828 290.403 C 828 325.174 856.229 353.403 891 353.403 L 891 353.403 L 891 353.403 C 925.771 353.403 954 325.174 954 290.403 C 954 255.632 925.771 227.403 891 227.403 L 891 227.403 L 891 227.403 C 856.229 227.403 828 255.632 828 290.403 L 828 290.403 Z  M 859.5 290.403 C 859.5 273.018 873.615 258.903 891 258.903 C 908.385 258.903 922.5 273.018 922.5 290.403 C 922.5 307.788 908.385 321.903 891 321.903 C 873.615 321.903 859.5 307.788 859.5 290.403 Z " fill-rule="evenodd" fill="rgb(196,223,46)"/><rect x="924" y="227.403" width="30" height="126" transform="matrix(1,0,0,1,0,0)" fill="rgb(196,223,46)"/></g><g><path d=" M 740 290.06 L 770 290.071 C 768.415 255.246 740.767 225.382 707 225.382 C 673.233 225.382 645.585 255.246 644 290.071 L 674 290.06 C 675.491 273.383 690.629 258.248 707 258.248 C 723.371 258.248 738.509 269.916 740 286.594 L 740 290.06 Z " fill="rgb(196,223,46)"/><rect x="644" y="226.393" width="30" height="126" transform="matrix(1,0,0,1,0,0)" fill="rgb(196,223,46)"/><rect x="740" y="289.393" width="30" height="64.01" transform="matrix(1,0,0,1,0,0)" fill="rgb(196,223,46)"/></g><g><path d=" M 1070 290.06 L 1100 290.071 C 1098.415 255.246 1070.767 225.382 1037 225.382 C 1003.233 225.382 975.585 255.246 974 290.071 L 1004 290.06 C 1005.491 273.383 1020.629 258.248 1037 258.248 C 1053.371 258.248 1068.509 269.916 1070 286.594 L 1070 290.06 Z " fill="rgb(196,223,46)"/><rect x="974" y="226.393" width="30" height="126" transform="matrix(1,0,0,1,0,0)" fill="rgb(196,223,46)"/><rect x="1070" y="289.393" width="30" height="64.01" transform="matrix(1,0,0,1,0,0)" fill="rgb(196,223,46)"/></g><g><g><rect x="458.976" y="227.063" width="30" height="119.99" transform="matrix(0.985,-0.171,0.171,0.985,-42.056,85.15)" fill="rgb(196,223,46)"/><rect x="513.511" y="266.672" width="30" height="75.065" transform="matrix(0.933,-0.36,0.36,0.933,-74.094,210.759)" fill="rgb(196,223,46)"/><rect x="483.319" y="266.575" width="30" height="74.12" transform="matrix(0.933,0.36,-0.36,0.933,142.796,-159.095)" fill="rgb(196,223,46)"/><rect x="537.976" y="228.073" width="30" height="119.99" transform="matrix(0.985,0.171,-0.171,0.985,57.311,-90.193)" fill="rgb(196,223,46)"/></g><rect x="498.013" y="263.789" width="31.008" height="10.805" transform="matrix(1,0,0,1,0,0)" fill="rgb(196,223,46)"/></g><g><rect x="598" y="227.403" width="30" height="122.34" transform="matrix(1,0,0,1,0,0)" fill="rgb(196,223,46)"/><circle vector-effect="non-scaling-stroke" cx="613.0000000000001" cy="206.07057008825635" r="15" fill="rgb(196,223,46)"/></g><g><rect x="781" y="231.589" width="30" height="122.34" transform="matrix(1,0,0,1,0,0)" fill="rgb(196,223,46)"/><circle vector-effect="non-scaling-stroke" cx="796.0000000000001" cy="210.25696681491698" r="15" fill="rgb(196,223,46)"/></g></g></g></svg>